<?xml version="1.0" encoding="utf-8"?>
<!-- Generator: Adobe Illustrator 16.0.0, SVG Export Plug-In . SVG Version: 6.00 Build 0)  -->
<!DOCTYPE svg PUBLIC "-//W3C//DTD SVG 1.1//EN" "http://www.w3.org/Graphics/SVG/1.1/DTD/svg11.dtd">
<svg version="1.1" id="Capa_1" xmlns="http://www.w3.org/2000/svg" xmlns:xlink="http://www.w3.org/1999/xlink" x="0px" y="0px"
	 width="242.475px" height="162px" viewBox="0 0 242.475 162" enable-background="new 0 0 242.475 162" xml:space="preserve">
<g>
	<path fill="#0081C6" d="M239.775,59.497c-1.857-2.18-4.594-3.429-7.51-3.429c-2.489,0-5,0.896-7.319,2.582
		c2.836-4.223,4.791-8.811,5.718-13.493c1.559-7.831-0.628-15.506-6.328-22.194c-6.064-7.117-16.104-12.989-29.034-16.985
		C182.637,2.067,167.336,0,151.044,0c-5.128,0-10.41,0.203-15.698,0.605c-15.869,1.208-31.66,4.387-46.936,9.453
		C73.625,14.96,59.928,21.422,47.687,29.264c-12.379,7.932-22.67,16.899-30.585,26.65C8.66,66.306,3.274,77.17,1.082,88.202
		c-1.626,8.173-1.417,16.154,0.616,23.717c1.973,7.341,5.629,14.174,10.872,20.323c4.001,4.703,8.917,8.978,14.61,12.696
		c5.576,3.641,11.918,6.775,18.847,9.306c6.908,2.53,14.442,4.474,22.378,5.773C76.452,161.336,84.978,162,93.736,162h0.01
		c4.509,0,9.15-0.177,13.792-0.525c15.871-1.21,31.666-4.393,46.942-9.463c14.78-4.899,28.478-11.357,40.719-19.202
		c12.379-7.927,22.67-16.894,30.589-26.648c8.438-10.39,13.827-21.254,16.019-32.289C242.637,69.699,243.325,63.666,239.775,59.497"
		/>
	<path fill="#FFFFFF" d="M26.361,87.414c3.387-35.86,57.02-67.394,111.659-71.546c39.541-3.005,78.677,11.645,75.479,27.76
		c-1.167,5.846-5.646,11.164-11.125,13.888c-1.547-5.743-6.686-6.272-11.223-5.928c-14.745,1.119-29.445,16.967-35.586,33.474
		c-2.275,6.135-3.512,10.946-3.967,14.721c-1.954,1.384-4.018,2.381-6.189,2.545c-8.247,0.624-5.872-9.007,0.495-22.363
		c6.368-13.356,16.666-23.791,7.589-23.103c-6.75,0.514-19.238,12.925-25.7,30.309c-2.203,5.921-3.429,10.613-3.919,14.324
		c-2.132,1.61-4.398,2.806-6.789,2.985c-18.51,1.407,13.197-47.635,16.916-57.65c1.791-4.817,0.661-6.625-1.908-6.484
		c-8.021,0.441-15.336,9.188-19.114,13.708c-4.945,5.919-6.958,5.319-7.544,5.329c-3.218,0.054-2.341-3.813-1.819-5.704
		c0.798-2.884,2.788-8.98-2.346-8.98c-15.563,0-46.208,56.29-62.009,63.026c-11.684,4.979-0.629,10.852,7.846,8.589
		c14.235-3.794,24.986-21.635,29.729-28.735c1.408-2.111,2.182-3.43,2.182-3.43s-0.486,1.498-1.047,3.632
		c-1.403,5.361-3.272,14.677,0.888,14.677c7.851,0,22.874-20.087,22.874-20.087s-12.983,36.13,6.814,34.627
		c7.618-0.58,12.052-3.681,15.722-7.35c1.736,5.168,6.661,5.645,11.035,5.316c7.347-0.56,12.434-3.775,16.7-7.543
		c1.701,5.278,6.67,5.769,11.073,5.431c16.401-1.249,29.445-16.967,35.585-33.477c1.845-4.963,3.004-9.06,3.62-12.444
		c10.146-4.032,18.753-13.516,20.841-24.033c4.415-22.214-33.958-39.763-87.168-35.718C73.646,11.913,16.635,48.439,8.626,88.757
		c-8.009,40.323,36.006,69.178,98.312,64.436c62.308-4.73,119.313-41.254,127.326-81.58c3.071-15.45-8.287-8.009-10.026,0.764
		c-7.029,35.358-57.021,67.385-111.66,71.542C112.577,143.918,20.435,150.147,26.361,87.414 M180.548,86.583
		c-2.455,5.142-5.484,9.848-7.771,13.656c-7.762,0.277-5.356-9.254,0.902-22.385c2.103-4.405,4.634-8.495,6.75-11.971
		c-0.213,2.693,2.059,4.998,5.674,5.585C185.448,75.37,183.394,80.605,180.548,86.583 M158.255,53.691
		c2.375-1.817,6.795-6.553,10.088-8.993c0.411-0.313,0.783-0.36,1.225-0.536c0.694-3.804,0.729-7.578,0.006-10.856
		c-0.467-2.119-1.607-2.521-2.853-1.649c-0.327,0.25-0.57,0.442-0.967,0.82c-1.482,1.535-2.742,3.217-5.629,7.5
		c-4.915,7.271-4.846,7.139-4.96,11.854C155.055,55.262,156.945,54.696,158.255,53.691"/>
	<g opacity="0.6">
		<g>
			<defs>
				<rect id="SVGID_1_" x="9.881" y="12.589" width="222.713" height="139.374"/>
			</defs>
			<clipPath id="SVGID_2_">
				<use xlink:href="#SVGID_1_"  overflow="visible"/>
			</clipPath>
			<g clip-path="url(#SVGID_2_)">
				<defs>
					<rect id="SVGID_3_" x="9.881" y="12.589" width="222.713" height="139.374"/>
				</defs>
				<clipPath id="SVGID_4_">
					<use xlink:href="#SVGID_3_"  overflow="visible"/>
				</clipPath>
				<path clip-path="url(#SVGID_4_)" fill="#339BD2" d="M150.418,67.872c1.414-2.319,2.634-4.321,3.463-5.971
					c0.71-1.401,0.917-2.152,0.977-2.52c-0.089-0.014-0.203-0.023-0.337-0.029c-0.149,0.373-0.353,0.832-0.64,1.402
					c-0.829,1.648-2.049,3.653-3.463,5.972c-2.096,3.434-4.473,7.326-6.507,11.59c-4.239,8.895-6.169,14.92-5.975,18.972
					c0.172-4.017,2.117-9.73,5.975-17.827C145.945,75.195,148.322,71.306,150.418,67.872"/>
				<path clip-path="url(#SVGID_4_)" fill="#339BD2" d="M131.938,46.499c0.889-2.396,0.76-3.369,0.69-3.624l-0.005-0.002
					c-0.079,0.571-0.273,1.375-0.686,2.48c-0.816,2.204-3.253,6.742-6.07,12c-9.327,17.39-17.054,32.676-16.712,41.325
					c0.322-8.819,7.787-23.533,16.712-40.18C128.686,53.24,131.122,48.702,131.938,46.499"/>
				<path clip-path="url(#SVGID_4_)" fill="#339BD2" d="M201.446,64.206l-1.113,0.443l-0.214,1.153
					c-0.621,3.4-1.806,7.469-3.528,12.094c-3.108,8.361-7.889,16.069-13.459,21.712c-6.174,6.24-13.167,9.831-20.229,10.366
					c-0.665,0.049-1.26,0.069-1.825,0.069c-3.982,0-6.071-1.199-6.983-4.016l-1.026-3.189l-2.545,2.256
					c-3.353,2.961-8.133,6.437-15.395,6.988c-0.663,0.055-1.259,0.073-1.823,0.073c-3.949,0-6.027-1.17-6.954-3.927l-1.126-3.352
					l-2.534,2.533c-3.159,3.157-7.078,6.154-14.314,6.704c-0.348,0.026-0.674,0.04-1.001,0.04c-2.535,0-4.36-0.808-5.58-2.475
					c-1.299-1.77-1.984-4.493-2.048-8.054c-0.075,4.121,0.609,7.24,2.048,9.199c1.22,1.667,3.045,2.475,5.58,2.475
					c0.327,0,0.653-0.009,1.001-0.04c7.236-0.55,11.155-3.55,14.314-6.704l2.534-2.539l1.126,3.362
					c0.927,2.747,3.005,3.929,6.954,3.929c0.564,0,1.16-0.03,1.823-0.08c7.262-0.551,12.042-4.027,15.395-6.992l2.545-2.252
					l1.026,3.189c0.912,2.821,3.001,4.021,6.983,4.021c0.565,0,1.16-0.025,1.825-0.079c7.063-0.536,14.056-4.117,20.229-10.365
					c5.57-5.634,10.351-13.347,13.459-21.709c1.723-4.625,2.907-8.693,3.528-12.091l0.214-1.155l1.113-0.444
					c9.775-3.886,17.623-12.915,19.522-22.467c0.242-1.227,0.336-2.44,0.293-3.643c-0.031,0.826-0.13,1.659-0.293,2.494
					C219.069,51.291,211.222,60.32,201.446,64.206"/>
				<path clip-path="url(#SVGID_4_)" fill="#339BD2" d="M99.955,80.364c-0.04,0.05-3.759,5.009-8.362,9.881
					c-7.851,8.322-11.467,9.306-12.691,9.329c-0.099-0.164-0.123,0.947,0,1.146c1.225-0.02,4.841-1.006,12.691-9.324
					c4.603-4.877,8.322-9.836,8.362-9.882V80.364z"/>
				<path clip-path="url(#SVGID_4_)" fill="#339BD2" d="M232.578,66.906c-0.041,0.901-0.173,2.062-0.471,3.549
					c-1.889,9.517-6.632,18.997-14.081,28.177c-7.266,8.946-16.776,17.219-28.273,24.585c-11.54,7.388-24.48,13.49-38.471,18.131
					c-14.492,4.812-29.47,7.825-44.517,8.968c-4.384,0.338-8.769,0.506-13.024,0.506c-8.213,0-16.183-0.625-23.691-1.854
					c-7.31-1.201-14.22-2.977-20.538-5.287c-6.209-2.263-11.863-5.06-16.803-8.283c-4.91-3.213-9.12-6.863-12.522-10.851
					c-4.315-5.069-7.32-10.668-8.927-16.646c-0.869-3.232-1.324-6.57-1.375-9.988c-0.048,3.819,0.407,7.54,1.375,11.134
					c1.607,5.978,4.612,11.58,8.927,16.65c3.402,3.987,7.612,7.638,12.522,10.842c4.94,3.233,10.594,6.02,16.803,8.292
					c6.318,2.311,13.228,4.088,20.538,5.287c7.508,1.221,15.479,1.845,23.691,1.845c4.255,0,8.64-0.169,13.024-0.496
					c15.047-1.15,30.025-4.166,44.517-8.968c13.99-4.641,26.931-10.741,38.471-18.131c11.497-7.371,21.008-15.642,28.273-24.59
					c7.449-9.176,12.192-18.657,14.081-28.177C232.548,69.383,232.634,67.894,232.578,66.906"/>
				<path clip-path="url(#SVGID_4_)" fill="#339BD2" d="M178.191,64.615c-2.098,3.434-4.468,7.325-6.502,11.59
					c-4.243,8.896-6.174,14.923-5.981,18.971c0.18-4.019,2.124-9.733,5.981-17.826c2.034-4.265,4.404-8.156,6.502-11.59l0.348-0.573
					v-1.146L178.191,64.615z"/>
				<path clip-path="url(#SVGID_4_)" fill="#339BD2" d="M62.714,102.338c-5.48,6.011-10.926,9.771-16.188,11.169
					c-1.051,0.277-2.182,0.426-3.368,0.426c-1.804,0-3.625-0.347-4.999-0.952c-0.694-0.308-1.13-0.615-1.398-0.863
					c-0.308,0.338-0.387,0.571-0.368,0.655c0.041,0.18,0.433,0.764,1.766,1.349c1.373,0.605,3.194,0.952,4.999,0.952
					c1.186,0,2.317-0.139,3.368-0.417c5.262-1.407,10.708-5.167,16.188-11.178c4.727-5.179,8.555-11.01,11.086-14.87
					c0.426-0.644,0.827-1.249,1.19-1.798c1.353-2.022,2.112-3.312,2.117-3.324v-1.146c-0.005,0.013-0.764,1.301-2.117,3.324
					c-0.363,0.544-0.764,1.156-1.19,1.803C71.269,91.327,67.44,97.149,62.714,102.338"/>
				<path clip-path="url(#SVGID_4_)" fill="#339BD2" d="M24.174,87.607c1.671-17.684,15.027-35.174,37.607-49.258
					c21.39-13.341,49.12-22.167,76.065-24.212c3.502-0.268,7.088-0.402,10.657-0.402c13.367,0,27.065,1.919,38.581,5.406
					c11.492,3.479,20.363,8.374,24.976,13.789c2.365,2.775,3.649,5.731,3.795,8.68c0.167-3.325-1.127-6.69-3.795-9.825
					c-4.612-5.415-13.483-10.313-24.976-13.792c-11.516-3.484-25.214-5.403-38.581-5.403c-3.569,0-7.155,0.135-10.657,0.399
					c-26.945,2.048-54.675,10.875-76.065,24.216C39.201,51.285,25.845,68.778,24.174,86.462c-0.204,2.188-0.298,4.325-0.279,6.408
					C23.916,91.148,24.005,89.398,24.174,87.607"/>
				<path clip-path="url(#SVGID_4_)" fill="#339BD2" d="M166.998,42.258c-1.933,1.435-4.19,3.575-6.179,5.464
					c-1.275,1.21-2.494,2.361-3.423,3.137c-0.009,0.342-0.02,0.729-0.028,1.176c0.926-0.777,2.156-1.943,3.451-3.167
					c1.988-1.887,4.246-4.026,6.179-5.462c0.204-0.157,0.406-0.279,0.596-0.378c0-0.511,0.025-0.84,0-1.146
					C167.404,41.979,167.202,42.104,166.998,42.258"/>
			</g>
		</g>
	</g>
	<path fill="#FFFFFF" d="M57.135,122.766c0-0.371,0.242-0.62,0.621-0.62c0.378,0,0.621,0.249,0.621,0.62v1.542h2.253v-1.542
		c0-0.371,0.243-0.62,0.62-0.62c0.379,0,0.621,0.249,0.621,0.62v4.402c0,0.371-0.241,0.621-0.621,0.621
		c-0.377,0-0.62-0.25-0.62-0.621v-1.815h-2.253v1.815c0,0.371-0.243,0.621-0.621,0.621c-0.379,0-0.621-0.25-0.621-0.621V122.766z"/>
	<path fill="#FFFFFF" d="M73.642,122.97c0-0.552,0.287-0.727,0.727-0.727h2.912c0.362,0,0.628,0.106,0.628,0.501
		c0,0.393-0.266,0.498-0.628,0.498h-2.398v1.18h2.103c0.326,0,0.582,0.091,0.582,0.477s-0.256,0.478-0.582,0.478h-2.103v1.315h2.459
		c0.362,0,0.627,0.105,0.627,0.499c0,0.395-0.265,0.5-0.627,0.5h-2.973c-0.439,0-0.727-0.175-0.727-0.727V122.97z"/>
	<path fill="#FFFFFF" d="M89.383,122.766c0-0.371,0.241-0.62,0.621-0.62c0.378,0,0.621,0.249,0.621,0.62v3.88h2.072
		c0.354,0,0.642,0.182,0.642,0.522c0,0.34-0.287,0.522-0.642,0.522h-2.588c-0.438,0-0.726-0.175-0.726-0.727V122.766z"/>
	<path fill="#FFFFFF" d="M105.814,122.523c0.105-0.28,0.303-0.378,0.604-0.378h0.295c0.28,0,0.529,0.067,0.666,0.454l1.497,4.167
		c0.046,0.122,0.121,0.34,0.121,0.478c0,0.301-0.265,0.545-0.583,0.545c-0.272,0-0.468-0.099-0.56-0.341l-0.318-0.908h-1.997
		l-0.325,0.908c-0.082,0.242-0.256,0.341-0.552,0.341c-0.341,0-0.574-0.213-0.574-0.545c0-0.138,0.075-0.355,0.121-0.478
		L105.814,122.523z M106.563,123.49h-0.015l-0.733,2.188h1.452L106.563,123.49z"/>
	<path fill="#FFFFFF" d="M120.233,122.97c0-0.552,0.288-0.727,0.727-0.727h1.511c1.354,0,2.596,0.59,2.596,2.725
		c0,1.724-0.962,2.723-2.618,2.723h-1.488c-0.439,0-0.727-0.175-0.727-0.727V122.97z M121.473,126.691h1.044
		c0.991,0,1.309-0.885,1.309-1.724c0-1.075-0.408-1.726-1.315-1.726h-1.037V126.691z"/>
	<path fill="#FFFFFF" d="M139.075,122.114c1.786,0,2.755,1.188,2.755,2.784c0,1.536-0.895,2.92-2.755,2.92
		c-1.951,0-2.752-1.271-2.752-2.92C136.323,123.303,137.291,122.114,139.075,122.114 M139.075,126.82
		c1.129,0,1.514-0.878,1.514-1.922c0-1.043-0.499-1.785-1.514-1.785c-1.012,0-1.512,0.742-1.512,1.785
		C137.563,125.942,137.911,126.82,139.075,126.82"/>
	<path fill="#FFFFFF" d="M156.18,124.536c1.135,0.257,1.423,0.93,1.423,1.565c0,0.982-0.741,1.717-2.239,1.717
		c-1.573,0-2.275-0.786-2.275-1.376c0-0.303,0.218-0.516,0.521-0.516c0.672,0,0.498,0.984,1.754,0.984
		c0.643,0,0.998-0.355,0.998-0.72c0-0.219-0.105-0.461-0.528-0.566l-1.4-0.356c-1.127-0.288-1.331-0.906-1.331-1.489
		c0-1.21,1.119-1.665,2.171-1.665c0.969,0,2.111,0.545,2.111,1.271c0,0.31-0.266,0.492-0.568,0.492
		c-0.574,0-0.468-0.812-1.627-0.812c-0.574,0-0.893,0.268-0.893,0.646s0.455,0.499,0.849,0.59L156.18,124.536z"/>
</g>
</svg>
